<svg width="512" height="512" viewBox="0 0 512 512" fill="none" xmlns="http://www.w3.org/2000/svg">
<rect width="512" height="512" rx="102.4" fill="#111111"/>
<path d="M231.5 96C266.018 96 294 123.982 294 158.5V267.936C294 288.646 277.211 305.436 256.5 305.436C235.789 305.436 219 288.646 219 267.936V170.289C219 163.386 224.597 157.789 231.5 157.789C238.403 157.789 244 163.386 244 170.289V267.936C244 274.839 249.597 280.436 256.5 280.436C263.403 280.436 269 274.839 269 267.936V158.5C269 137.789 252.211 121 231.5 121C210.789 121 194 137.789 194 158.5V312.646C194 316.515 195.282 320.274 197.645 323.337L246.104 386.141C251.107 392.626 260.893 392.626 265.896 386.141L314.355 323.337C316.718 320.274 318 316.515 318 312.646V170.273C318 163.37 323.597 157.773 330.5 157.773C337.403 157.773 343 163.37 343 170.273V312.646C343 322.041 339.887 331.171 334.148 338.608L285.689 401.413C270.678 420.869 241.322 420.869 226.311 401.413L177.852 338.608C172.113 331.171 169 322.041 169 312.646V158.5C169 123.982 196.982 96 231.5 96Z" fill="white"/>
</svg>
